<svg width="96" height="96" xmlns="http://www.w3.org/2000/svg" xmlns:xlink="http://www.w3.org/1999/xlink" xml:space="preserve" overflow="hidden"><g transform="translate(-246 -312)"><path d="M286.613 344C287.881 343.999 289.132 343.712 290.273 343.16L294.044 348.76 297.987 343.175C302.216 345.189 307.277 343.392 309.29 339.163 309.902 337.877 310.181 336.457 310.1 335.035 309.839 330.348 305.828 326.759 301.141 327.02 298.175 327.185 295.511 328.886 294.113 331.507 291.908 327.363 286.76 325.791 282.616 327.996 278.472 330.202 276.9 335.349 279.105 339.493 280.582 342.268 283.47 344.001 286.613 344ZM294.083 345.238 291.967 342.094C292.847 341.378 293.577 340.494 294.112 339.494 294.654 340.505 295.394 341.397 296.287 342.117ZM301.611 329C305.201 329 308.111 331.91 308.111 335.5 308.111 339.09 305.201 342 301.611 342 298.029 342 295.121 339.101 295.111 335.519L295.111 335.481C295.126 331.9 298.03 329.004 301.611 329ZM286.3 329.008C289.889 328.838 292.937 331.609 293.107 335.199 293.111 335.293 293.114 335.387 293.114 335.481L293.114 335.519C293.104 339.109 290.185 342.011 286.595 342 283.006 341.99 280.104 339.072 280.114 335.482 280.124 332.021 282.844 329.175 286.3 329.008Z"/><path d="M286.408 337.992C287.784 338.105 288.991 337.081 289.104 335.705 289.218 334.329 288.194 333.122 286.818 333.009 285.442 332.896 284.234 333.919 284.121 335.296 284.11 335.431 284.11 335.567 284.121 335.702 284.22 336.922 285.188 337.892 286.408 337.992Z"/><path d="M301.406 337.992C302.782 338.105 303.989 337.081 304.103 335.705 304.216 334.329 303.192 333.122 301.816 333.009 300.44 332.896 299.232 333.919 299.119 335.296 299.108 335.431 299.108 335.567 299.119 335.702 299.218 336.922 300.186 337.892 301.406 337.992Z"/><path d="M273.163 331.252C272.434 333.187 272.044 335.233 272.009 337.3 272.012 339.892 272.582 342.452 273.68 344.8 269.903 351.222 267.942 358.55 268.005 366 268.005 377.024 272.045 386.826 278.283 393.042 278.193 393.023 278.102 393.009 278.01 393 276.353 393 275.01 394.343 275.01 396 275.01 397.164 275.945 401 278.01 401 278.598 400.975 279.143 400.687 279.495 400.216 280.073 401.045 281.213 401.25 282.043 400.672 282.226 400.544 282.385 400.383 282.511 400.198 282.864 400.678 283.416 400.972 284.011 400.998 285.17 400.998 285.974 399.788 286.455 398.522 291.3 400.489 296.722 400.489 301.567 398.522 302.048 399.79 302.852 401 304.014 401 304.601 400.975 305.146 400.687 305.498 400.216 306.075 401.044 307.214 401.248 308.043 400.671 308.22 400.548 308.374 400.393 308.498 400.216 308.857 400.695 309.416 400.983 310.014 401 312.08 401 313.014 397.164 313.014 396 313.014 394.343 311.671 393 310.014 393 309.917 393.009 309.821 393.022 309.725 393.041 315.964 386.828 320.005 377.025 320.005 366 320.062 358.645 318.15 351.409 314.466 345.042 315.616 342.658 316.213 340.046 316.215 337.4 316.231 335.322 315.843 333.261 315.073 331.331L315.113 330.65 315.513 322.675 315.51 322.6C315.43 321.833 315.026 321.136 314.4 320.685 313.801 320.241 313.059 320.034 312.316 320.105L304.54 322.38C301.078 321.665 297.547 321.337 294.012 321.4 290.482 321.348 286.956 321.676 283.496 322.379L276.111 320.047 275.911 320.005C274.344 319.835 272.927 320.943 272.716 322.505L272.709 322.58 273.109 330.505ZM318.005 366C318.107 373.65 315.917 381.155 311.715 387.548 301.59 382.981 295.06 372.927 295.005 361.82 295.022 360.193 295.166 358.569 295.437 356.964 302.637 356.711 309.283 353.036 313.325 347.073 316.44 352.893 318.049 359.399 318.005 366ZM275.105 330.45 274.71 322.644C274.828 322.248 275.197 321.98 275.61 321.99L275.618 321.99 283.249 324.4 283.728 324.375C287.109 323.671 290.559 323.344 294.012 323.4 297.461 323.332 300.905 323.659 304.28 324.373L304.395 324.4 312.595 322.091C312.815 322.095 313.029 322.165 313.21 322.291 313.362 322.4 313.469 322.56 313.51 322.742L313.11 330.601 313.1 331.807C313.855 333.574 314.235 335.479 314.215 337.4 314.215 347.105 305.197 355 294.115 355 283.033 355 274.015 347.06 274.015 337.3 274.052 335.362 274.437 333.446 275.154 331.645ZM274.8 346.87C278.763 352.874 285.359 356.62 292.546 356.947 292.843 358.609 292.996 360.293 293.005 361.981 292.938 373.052 286.446 383.075 276.371 387.663 272.117 381.247 269.899 373.697 270.005 366 269.959 359.32 271.609 352.738 274.8 346.87ZM278.6 397.8C278.442 398.184 278.241 398.549 278 398.888 277.997 398.892 277.99 398.893 277.986 398.89 277.985 398.889 277.985 398.889 277.984 398.888 277.428 398.02 277.093 397.028 277.01 396 277.01 395.448 277.458 395 278.01 395 278.321 395.015 278.61 395.163 278.803 395.407L279.394 395.999ZM281.6 397.8C281.444 398.183 281.245 398.548 281.008 398.887 281.005 398.891 281 398.892 280.995 398.889 280.995 398.889 280.994 398.888 280.993 398.887 280.762 398.563 280.577 398.209 280.442 397.835L279.687 395.947 280.221 395.413C280.535 394.975 281.144 394.875 281.582 395.189 281.668 395.25 281.744 395.326 281.806 395.413L282.397 396.005ZM284.038 398.891C284.035 398.895 284.028 398.896 284.024 398.893 284.023 398.892 284.023 398.892 284.022 398.891 283.783 398.551 283.584 398.185 283.428 397.8L282.628 396 283.219 395.408C283.412 395.164 283.7 395.015 284.011 395 284.563 395 285.011 395.448 285.011 396 284.927 397.028 284.591 398.02 284.035 398.888ZM301.013 396C301.017 396.194 301.033 396.387 301.062 396.579 296.552 398.468 291.473 398.469 286.962 396.584 286.992 396.391 287.009 396.196 287.012 396 287.012 394.343 285.669 393 284.012 393 283.482 393.003 282.962 393.152 282.512 393.433 282.117 393.198 281.671 393.061 281.212 393.033 279.883 391.91 278.666 390.66 277.581 389.3 285.713 385.438 291.729 378.187 294.024 369.482 296.353 378.155 302.384 385.361 310.511 389.182 309.407 390.587 308.164 391.876 306.801 393.032 306.346 393.061 305.905 393.199 305.514 393.432 305.064 393.152 304.544 393.002 304.014 392.999 302.357 392.998 301.014 394.341 301.013 395.998 301.013 395.999 301.013 395.999 301.013 396ZM304.6 397.8C304.444 398.185 304.244 398.551 304.005 398.891 304.002 398.895 303.997 398.896 303.992 398.893 303.992 398.893 303.991 398.892 303.99 398.891 303.432 398.022 303.097 397.029 303.013 396 303.013 395.448 303.461 395 304.013 395 304.323 395.015 304.612 395.163 304.805 395.407L305.4 396ZM307.6 397.8C307.444 398.183 307.246 398.548 307.009 398.887 307.006 398.891 306.999 398.892 306.995 398.889 306.994 398.888 306.994 398.888 306.993 398.887 306.763 398.563 306.577 398.209 306.442 397.835L305.687 395.947 306.221 395.413C306.535 394.975 307.145 394.875 307.583 395.189 307.669 395.251 307.745 395.327 307.807 395.413L308.4 396ZM310.025 398.9C310.022 398.904 310.017 398.905 310.013 398.902 310.012 398.902 310.011 398.901 310.01 398.9 309.769 398.573 309.578 398.212 309.443 397.829L308.688 395.941 309.222 395.407C309.415 395.163 309.703 395.015 310.014 395 310.566 395 311.014 395.448 311.014 396 310.93 397.034 310.59 398.03 310.025 398.9Z"/></g></svg>