<svg width="101" height="30" viewBox="0 0 101 30" fill="none" xmlns="http://www.w3.org/2000/svg">
<path d="M18.0058 0H17.0287V18.9022H18.0058V0Z" fill="#262626"/>
<path d="M18.0058 25.3417H17.0287V29.9984H18.0058V25.3417Z" fill="#262626"/>
<path d="M24.349 0H23.3718V18.9022H24.349V0Z" fill="#262626"/>
<path d="M24.349 25.3417H23.3718V29.9984H24.349V25.3417Z" fill="#262626"/>
<path d="M0 10.6001L0 11.5772L17.249 11.5772L17.249 10.6001L0 10.6001Z" fill="#262626"/>
<path d="M24.3479 10.5995L24.3479 11.5767L34.9379 11.5767L34.9379 10.5995L24.3479 10.5995Z" fill="#262626"/>
<path d="M5.46433 0H4.48718V4.65346H5.46433V0Z" fill="#262626"/>
<path d="M5.46433 11.0978H4.48718V29.9984H5.46433V11.0978Z" fill="#262626"/>
<path d="M11.7362 0H10.759V4.65346H11.7362V0Z" fill="#262626"/>
<path d="M11.7362 11.0978H10.759V29.9984H11.7362V11.0978Z" fill="#262626"/>
<path d="M0 4.30972L0 5.28687L17.249 5.28687L17.249 4.30972L0 4.30972Z" fill="#262626"/>
<path d="M24.3479 4.3092L24.3479 5.28635L34.9379 5.28635L34.9379 4.3092L24.3479 4.3092Z" fill="#262626"/>
<path d="M34.9405 0.139343H29.7937V5.28618H34.9405V0.139343Z" fill="#262626"/>
<path d="M34.9405 10.5996H29.7937V30H34.9405V10.5996Z" fill="#262626"/>
<path d="M60.1909 30L47.283 10.5948H53.5351L63.0022 24.7827H67.9504V30H60.1909Z" fill="#262626"/>
<path d="M80.8744 0.139343L93.7759 19.5461H87.5238L78.0294 5.29419H73.1197L73.1133 0.139343H80.8744Z" fill="#262626"/>
<path d="M78.2601 10.5996H73.1133V30H78.2601V10.5996Z" fill="#262626"/>
<path d="M67.9524 0.139343H62.8055V19.6214H67.9524V0.139343Z" fill="#262626"/>
<path d="M95.6858 10.5996H100.884V30H94.5933L91.058 24.8659H95.6858V10.5996Z" fill="#262626"/>
<path d="M45.2951 30H40.097V0.139343H46.386L49.9214 5.27336H45.2951V30Z" fill="#262626"/>
<path d="M100.884 0.139343H95.7367V5.28618H100.884V0.139343Z" fill="#262626"/>
<path d="M0.000732422 24.8533L0.000732422 25.8304L4.97777 25.8304L4.97777 24.8533L0.000732422 24.8533Z" fill="#262626"/>
<path d="M0.000732422 18.563L0.000732422 19.5401L4.97777 19.5401L4.97777 18.563L0.000732422 18.563Z" fill="#262626"/>
<path d="M11.3907 24.853L11.3907 25.8301L27.2429 25.8301L27.2429 24.853L11.3907 24.853Z" fill="#262626"/>
<path d="M11.3907 18.5625L11.3907 19.5396L27.2429 19.5396L27.2429 18.5625L11.3907 18.5625Z" fill="#262626"/>
</svg>
