<?xml version="1.0" standalone="no"?>
<!DOCTYPE svg PUBLIC "-//W3C//DTD SVG 20010904//EN"
 "http://www.w3.org/TR/2001/REC-SVG-20010904/DTD/svg10.dtd">
<svg version="1.0" xmlns="http://www.w3.org/2000/svg"
 width="1022.000000pt" height="1022.000000pt" viewBox="0 0 1022.000000 1022.000000"
 preserveAspectRatio="xMidYMid meet">
<metadata>
Created by potrace 1.14, written by Peter Selinger 2001-2017
</metadata>
<g transform="translate(0.000000,1022.000000) scale(0.100000,-0.100000)"
fill="#000000" stroke="none">
<path d="M4790 9716 c-162 -96 -443 -261 -625 -367 -181 -106 -348 -205 -370
-220 -48 -32 -143 -87 -205 -120 -25 -13 -52 -29 -60 -35 -8 -7 -41 -26 -72
-43 -84 -45 -102 -55 -108 -62 -3 -3 -30 -19 -60 -35 -48 -25 -97 -53 -175
-101 -11 -7 -153 -89 -315 -184 -162 -94 -315 -184 -340 -200 -25 -15 -200
-119 -390 -230 -190 -110 -367 -216 -395 -234 -27 -18 -99 -61 -160 -95 -60
-35 -130 -75 -155 -90 -25 -15 -65 -38 -90 -51 -25 -13 -52 -29 -60 -35 -8 -7
-35 -23 -60 -36 -25 -13 -71 -40 -102 -59 l-55 -34 0 -100 c1 -55 -3 -505 -7
-1000 -5 -495 -10 -1075 -11 -1290 -2 -214 -6 -835 -10 -1380 l-7 -990 2086
-1202 2086 -1203 157 94 c87 51 257 151 378 221 121 71 226 133 234 139 15 12
110 68 151 88 14 7 47 28 75 45 27 18 54 33 60 33 6 0 16 5 23 12 12 12 97 63
157 93 17 9 44 25 60 35 17 11 44 27 60 35 17 9 42 23 57 33 24 15 230 136
933 549 99 58 300 177 447 264 146 88 270 159 274 159 4 0 15 6 23 14 9 8 39
27 68 42 28 16 88 50 132 76 44 27 84 48 87 48 4 0 15 6 23 14 9 8 39 27 68
42 28 16 91 53 140 82 48 29 180 105 292 171 l205 118 2 139 c7 514 27 3429
28 4083 l1 544 -2075 1198 c-1141 659 -2082 1198 -2090 1198 -8 0 -148 -78
-310 -173z m-653 -1956 l254 -80 122 20 c221 35 329 43 602 43 274 0 385 -8
599 -44 l118 -20 258 76 c157 46 276 75 304 75 82 0 164 -60 184 -133 5 -19 2
-150 -6 -323 l-15 -291 27 -94 c37 -132 46 -196 46 -334 0 -163 -33 -330 -93
-465 l-23 -52 81 -161 c204 -409 295 -803 295 -1271 -1 -685 -222 -1317 -617
-1763 -40 -45 -73 -84 -73 -87 0 -4 12 -6 28 -6 62 -1 148 -62 171 -123 37
-98 -21 -302 -109 -381 -49 -44 -91 -47 -144 -11 l-36 24 -36 -24 c-47 -32
-91 -32 -139 1 -37 25 -38 25 -59 5 -26 -24 -68 -35 -101 -27 -37 9 -99 69
-120 116 -21 47 -12 47 -148 6 -150 -44 -273 -59 -437 -53 -154 6 -240 21
-385 67 -49 16 -89 28 -90 27 -5 -26 -57 -106 -87 -132 -47 -43 -89 -46 -142
-10 l-36 24 -36 -24 c-47 -32 -91 -32 -138 0 l-38 25 -30 -25 c-78 -66 -185 6
-239 160 -27 76 -35 171 -19 219 24 73 103 136 170 136 16 0 30 2 30 6 0 3
-33 42 -73 87 -314 355 -513 810 -594 1352 -22 151 -25 630 -5 770 54 374 164
713 329 1010 l39 71 -27 66 c-72 175 -100 395 -76 578 9 63 27 151 41 195 l26
80 -16 304 c-14 278 -14 307 0 346 28 72 99 125 170 125 21 0 153 -36 293 -80z"/>
<path d="M3817 7688 l-24 -23 15 -301 15 -301 -26 -94 c-37 -134 -47 -199 -47
-315 0 -281 114 -553 322 -770 113 -118 230 -204 373 -273 192 -94 328 -132
544 -152 415 -39 851 105 1141 378 326 307 449 750 315 1135 l-25 71 16 309
c15 294 15 310 -2 329 -9 10 -24 19 -33 19 -8 0 -137 -34 -285 -76 -300 -85
-264 -81 -501 -43 -126 21 -174 23 -485 23 -351 1 -411 -4 -663 -48 l-78 -14
-266 84 c-147 46 -270 84 -274 84 -4 0 -19 -10 -32 -22z m982 -358 c120 -42
222 -125 312 -251 15 -22 15 -21 48 30 71 109 222 214 349 240 303 62 600
-116 688 -414 23 -79 23 -219 0 -300 -58 -198 -204 -347 -397 -406 -95 -29
-263 -24 -352 11 -33 12 -62 18 -66 14 -4 -5 -66 -91 -136 -191 l-128 -183
-125 188 c-69 103 -126 188 -127 190 -1 2 -20 -4 -41 -12 -106 -41 -250 -49
-358 -21 -308 81 -494 391 -417 694 55 217 213 376 430 431 65 16 249 5 320
-20z"/>
<path d="M4501 7214 c-222 -60 -365 -272 -331 -491 58 -365 489 -510 752 -252
69 68 117 161 128 252 38 315 -249 572 -549 491z m189 -283 c99 -52 117 -186
36 -267 -68 -68 -169 -65 -238 7 -102 107 -26 279 122 279 25 0 61 -8 80 -19z"/>
<path d="M5535 7217 c-117 -31 -236 -120 -288 -215 -125 -229 -34 -507 203
-621 72 -35 79 -36 180 -35 122 0 186 20 272 85 237 177 236 531 -1 709 -100
75 -251 107 -366 77z m173 -281 c66 -34 107 -111 96 -175 -18 -102 -111 -165
-209 -140 -144 37 -171 222 -46 306 40 27 117 31 159 9z"/>
<path d="M5095 6469 c-15 -23 -48 -64 -73 -91 l-45 -48 48 -73 c26 -39 59 -87
72 -105 l25 -33 42 58 c23 32 57 79 76 106 l34 48 -51 52 c-28 28 -62 69 -76
91 l-25 38 -27 -43z"/>
<path d="M3737 5883 c-334 -700 -354 -1524 -54 -2243 47 -114 158 -322 223
-418 4 -6 146 69 227 119 405 252 708 649 836 1099 78 275 94 484 59 781 l-11
96 -101 12 c-422 52 -813 273 -1055 599 -30 39 -57 72 -61 72 -4 0 -32 -53
-63 -117z"/>
<path d="M6383 5923 c-66 -88 -207 -228 -307 -302 -145 -108 -313 -191 -498
-245 -89 -26 -268 -56 -331 -56 -33 0 -35 -2 -41 -41 -30 -185 -25 -453 10
-634 104 -535 407 -988 856 -1279 102 -66 245 -139 258 -131 5 3 31 43 58 88
430 715 491 1640 161 2434 -41 97 -106 233 -113 233 -2 0 -26 -30 -53 -67z"/>
<path d="M5076 4338 c-89 -268 -244 -533 -442 -753 -137 -154 -371 -335 -555
-430 l-90 -46 50 -57 c156 -178 256 -247 313 -216 33 19 117 16 163 -5 45 -20
102 -79 110 -114 4 -12 7 -42 8 -66 2 -42 3 -44 52 -62 253 -98 595 -97 861 2
54 20 54 21 54 63 0 55 35 122 83 160 41 33 30 32 212 25 84 -2 99 7 225 138
66 69 120 129 120 133 0 5 -39 29 -87 55 -362 196 -660 491 -855 845 -47 85
-119 254 -153 358 -15 45 -28 82 -29 82 -2 0 -20 -51 -40 -112z"/>
<path d="M3988 2709 c-33 -19 -40 -46 -27 -107 13 -64 46 -142 61 -142 5 0 29
42 53 93 l44 92 -39 38 c-40 38 -62 44 -92 26z"/>
<path d="M4182 2700 c-18 -11 -35 -27 -39 -36 -3 -9 9 -53 27 -98 33 -82 47
-106 60 -106 8 0 90 172 90 188 0 16 -69 72 -88 72 -9 0 -32 -9 -50 -20z"/>
<path d="M4410 2713 c-19 -7 -70 -54 -70 -64 0 -18 84 -189 92 -189 15 0 58
105 64 157 5 40 2 53 -16 76 -21 26 -39 31 -70 20z"/>
<path d="M5753 2696 l-27 -24 13 -63 c14 -69 48 -149 63 -149 5 0 29 42 53 93
l43 92 -38 38 c-46 43 -68 46 -107 13z"/>
<path d="M5975 2708 c-11 -6 -30 -19 -41 -30 l-22 -19 35 -87 c19 -48 41 -94
49 -102 18 -19 19 -17 71 99 l37 83 -37 34 c-39 36 -59 41 -92 22z"/>
<path d="M6185 2710 c-11 -4 -30 -19 -42 -32 l-23 -24 33 -80 c17 -44 39 -91
47 -104 16 -23 16 -22 42 36 15 32 30 82 33 109 6 42 4 54 -15 78 -22 28 -40
32 -75 17z"/>
<path d="M9535 7640 c-5 -8 -42 -4148 -45 -4963 l0 -88 -78 41 -77 41 -2087
-1225 c-1148 -673 -2096 -1230 -2108 -1236 -18 -10 -284 141 -2155 1221
l-2135 1231 -55 -28 c-63 -33 -90 -52 -84 -58 2 -2 996 -577 2209 -1276 1213
-700 2208 -1277 2211 -1282 3 -5 989 567 2190 1272 1201 705 2185 1283 2186
1284 4 4 42 5070 38 5074 -1 2 -6 -2 -10 -8z"/>
</g>
</svg>
